<?xml version="1.0" encoding="utf-8"?><svg xml:space="preserve" viewBox="0 0 100 100" y="0px" x="0px" xmlns:xlink="http://www.w3.org/1999/xlink" xmlns="http://www.w3.org/2000/svg" id="圖層_1" version="1.1" width="200px" height="200px" style="width:100%;height:100%;background-size:initial;background-repeat-y:initial;background-repeat-x:initial;background-position-y:initial;background-position-x:initial;background-origin:initial;background-image:initial;background-color:rgb(255, 255, 255);background-clip:initial;background-attachment:initial;animation-play-state:paused" ><g class="ldl-scale" style="transform-origin:50% 50%;transform:rotate(0deg) scale(0.8, 0.8);animation-play-state:paused" ><path d="M79.223282,30.514952H39.499184c-4.218243,0-7.637804,3.419561-7.637804,7.637804v35.93679 c0,4.218246,3.419561,7.637856,7.637804,7.637856h22.12471c0.659664,6.730705,6.333145,11.990555,13.237206,11.990555h0.000046 V81.727402h4.362137c4.218239,0,7.637802-3.419609,7.637802-7.637856v-35.93679 C86.861084,33.934513,83.441521,30.514952,79.223282,30.514952z" stroke-miterlimit="10" stroke-linejoin="round" stroke-linecap="round" stroke-width="3.5" stroke="#333435" fill="#D2D2D3" style="stroke:rgb(51, 52, 53);fill:rgb(210, 210, 211);animation-play-state:paused" ></path>
<path d="M20.499186,14.514951h39.724091c4.218243,0,7.637806,3.419564,7.637806,7.637805V58.08955 c0,4.218239-3.419563,7.637852-7.637806,7.637852h-22.12471c-0.65966,6.730705-6.333147,11.990555-13.237206,11.990555h-0.000046 V65.727402h-4.362131c-4.218243,0-7.637806-3.419613-7.637806-7.637852V22.152756 C12.86138,17.934515,16.280943,14.514951,20.499186,14.514951z" stroke-miterlimit="10" stroke-linejoin="round" stroke-linecap="round" stroke-width="3.5" stroke="#333435" fill="#FFFFFF" style="stroke:rgb(51, 52, 53);fill:rgb(255, 255, 255);animation-play-state:paused" ></path>
<metadata xmlns:d="https://loading.io/stock/" style="animation-play-state:paused" ><d:name style="animation-play-state:paused" >discuss</d:name>


<d:tags style="animation-play-state:paused" >discuss,confirm,consider,debate,deliberate,explain,social,business</d:tags>


<d:license style="animation-play-state:paused" >by</d:license>


<d:slug style="animation-play-state:paused" >vqmvnl</d:slug></metadata></g><!-- generated by https://loading.io/ --></svg>